<mxfile host="app.diagrams.net" agent="Mozilla/5.0 (Windows NT 10.0; Win64; x64) AppleWebKit/537.36 (KHTML, like Gecko) Chrome/135.0.0.0 Safari/537.36" version="26.2.14">
  <diagram id="r5kmpghzl9CKiOgxhH3K" name="PÃ¡gina-1">
    <mxGraphModel dx="1897" dy="2171" grid="1" gridSize="10" guides="1" tooltips="1" connect="1" arrows="1" fold="1" page="1" pageScale="1" pageWidth="827" pageHeight="1169" math="0" shadow="0">
      <root>
        <mxCell id="0" />
        <mxCell id="1" parent="0" />
        <mxCell id="_ER3O8_ixGloc-CAV8IO-1" value="Fintech - Accelerator" style="text;html=1;strokeColor=none;fillColor=none;align=center;verticalAlign=middle;whiteSpace=wrap;rounded=0;fontSize=40;" parent="1" vertex="1">
          <mxGeometry x="190" y="-330" width="614" height="81" as="geometry" />
        </mxCell>
        <mxCell id="_ER3O8_ixGloc-CAV8IO-2" value="" style="line;strokeWidth=2;html=1;" parent="1" vertex="1">
          <mxGeometry x="190" y="-259" width="600" height="10" as="geometry" />
        </mxCell>
        <mxCell id="_ER3O8_ixGloc-CAV8IO-16" style="edgeStyle=orthogonalEdgeStyle;rounded=0;orthogonalLoop=1;jettySize=auto;html=1;entryX=0.57;entryY=1;entryDx=0;entryDy=0;entryPerimeter=0;fontSize=20;endArrow=none;endFill=0;" parent="1" source="_ER3O8_ixGloc-CAV8IO-7" target="_ER3O8_ixGloc-CAV8IO-13" edge="1">
          <mxGeometry relative="1" as="geometry" />
        </mxCell>
        <mxCell id="_ER3O8_ixGloc-CAV8IO-18" style="edgeStyle=orthogonalEdgeStyle;rounded=0;orthogonalLoop=1;jettySize=auto;html=1;entryX=1;entryY=0.5;entryDx=0;entryDy=0;fontSize=20;endArrow=none;endFill=0;" parent="1" source="_ER3O8_ixGloc-CAV8IO-7" target="_ER3O8_ixGloc-CAV8IO-9" edge="1">
          <mxGeometry relative="1" as="geometry" />
        </mxCell>
        <mxCell id="_ER3O8_ixGloc-CAV8IO-20" style="edgeStyle=orthogonalEdgeStyle;rounded=0;orthogonalLoop=1;jettySize=auto;html=1;entryX=1;entryY=0.5;entryDx=0;entryDy=0;fontSize=20;endArrow=none;endFill=0;" parent="1" source="_ER3O8_ixGloc-CAV8IO-7" target="_ER3O8_ixGloc-CAV8IO-15" edge="1">
          <mxGeometry relative="1" as="geometry" />
        </mxCell>
        <mxCell id="_ER3O8_ixGloc-CAV8IO-23" style="edgeStyle=orthogonalEdgeStyle;rounded=0;orthogonalLoop=1;jettySize=auto;html=1;entryX=0;entryY=0.5;entryDx=0;entryDy=0;endArrow=none;endFill=0;fontSize=20;" parent="1" source="_ER3O8_ixGloc-CAV8IO-7" target="_ER3O8_ixGloc-CAV8IO-22" edge="1">
          <mxGeometry relative="1" as="geometry" />
        </mxCell>
        <mxCell id="_ER3O8_ixGloc-CAV8IO-32" value="(1,1)" style="edgeLabel;html=1;align=center;verticalAlign=middle;resizable=0;points=[];fontSize=15;" parent="_ER3O8_ixGloc-CAV8IO-23" vertex="1" connectable="0">
          <mxGeometry x="-0.1833" relative="1" as="geometry">
            <mxPoint as="offset" />
          </mxGeometry>
        </mxCell>
        <mxCell id="_ER3O8_ixGloc-CAV8IO-7" value="CreditCard" style="whiteSpace=wrap;html=1;align=center;fontSize=20;fontStyle=1" parent="1" vertex="1">
          <mxGeometry x="220" y="313" width="120" height="40" as="geometry" />
        </mxCell>
        <mxCell id="_ER3O8_ixGloc-CAV8IO-9" value="IssueDate" style="ellipse;whiteSpace=wrap;html=1;align=center;fontSize=15;" parent="1" vertex="1">
          <mxGeometry x="36" y="240" width="100" height="40" as="geometry" />
        </mxCell>
        <mxCell id="_ER3O8_ixGloc-CAV8IO-13" value="CardNumber" style="ellipse;whiteSpace=wrap;html=1;align=center;fontStyle=4;fontSize=15;" parent="1" vertex="1">
          <mxGeometry x="223" y="220" width="100" height="40" as="geometry" />
        </mxCell>
        <mxCell id="_ER3O8_ixGloc-CAV8IO-15" value="ExpirationDate" style="ellipse;whiteSpace=wrap;html=1;align=center;fontSize=15;" parent="1" vertex="1">
          <mxGeometry x="30" y="440" width="106" height="46" as="geometry" />
        </mxCell>
        <mxCell id="_ER3O8_ixGloc-CAV8IO-28" style="edgeStyle=orthogonalEdgeStyle;rounded=0;orthogonalLoop=1;jettySize=auto;html=1;entryX=0;entryY=0.5;entryDx=0;entryDy=0;endArrow=none;endFill=0;fontSize=15;" parent="1" source="_ER3O8_ixGloc-CAV8IO-21" target="_ER3O8_ixGloc-CAV8IO-26" edge="1">
          <mxGeometry relative="1" as="geometry" />
        </mxCell>
        <mxCell id="_ER3O8_ixGloc-CAV8IO-29" style="edgeStyle=orthogonalEdgeStyle;rounded=0;orthogonalLoop=1;jettySize=auto;html=1;endArrow=none;endFill=0;fontSize=15;entryX=0;entryY=0.5;entryDx=0;entryDy=0;" parent="1" source="_ER3O8_ixGloc-CAV8IO-21" target="jgJUUqroV2WTiFEcboyq-4" edge="1">
          <mxGeometry relative="1" as="geometry">
            <mxPoint x="780.0000743163453" y="372.9655172413793" as="targetPoint" />
            <Array as="points">
              <mxPoint x="760" y="333" />
              <mxPoint x="760" y="363" />
            </Array>
          </mxGeometry>
        </mxCell>
        <mxCell id="_ER3O8_ixGloc-CAV8IO-30" style="edgeStyle=orthogonalEdgeStyle;rounded=0;orthogonalLoop=1;jettySize=auto;html=1;endArrow=none;endFill=0;fontSize=15;" parent="1" source="_ER3O8_ixGloc-CAV8IO-21" target="_ER3O8_ixGloc-CAV8IO-25" edge="1">
          <mxGeometry relative="1" as="geometry" />
        </mxCell>
        <mxCell id="_ER3O8_ixGloc-CAV8IO-21" value="Especies" style="whiteSpace=wrap;html=1;align=center;fontSize=20;fontStyle=1" parent="1" vertex="1">
          <mxGeometry x="620" y="313" width="120" height="40" as="geometry" />
        </mxCell>
        <mxCell id="_ER3O8_ixGloc-CAV8IO-24" style="edgeStyle=orthogonalEdgeStyle;rounded=0;orthogonalLoop=1;jettySize=auto;html=1;entryX=0;entryY=0.5;entryDx=0;entryDy=0;endArrow=none;endFill=0;fontSize=20;" parent="1" source="_ER3O8_ixGloc-CAV8IO-22" target="_ER3O8_ixGloc-CAV8IO-21" edge="1">
          <mxGeometry relative="1" as="geometry">
            <Array as="points">
              <mxPoint x="570" y="333" />
              <mxPoint x="570" y="333" />
            </Array>
          </mxGeometry>
        </mxCell>
        <mxCell id="_ER3O8_ixGloc-CAV8IO-31" value="(n,1)" style="edgeLabel;html=1;align=center;verticalAlign=middle;resizable=0;points=[];fontSize=15;" parent="_ER3O8_ixGloc-CAV8IO-24" vertex="1" connectable="0">
          <mxGeometry x="0.25" relative="1" as="geometry">
            <mxPoint as="offset" />
          </mxGeometry>
        </mxCell>
        <mxCell id="_ER3O8_ixGloc-CAV8IO-22" value="pertenece" style="shape=rhombus;perimeter=rhombusPerimeter;whiteSpace=wrap;html=1;align=center;fontSize=20;fontStyle=2" parent="1" vertex="1">
          <mxGeometry x="410" y="303" width="140" height="60" as="geometry" />
        </mxCell>
        <mxCell id="_ER3O8_ixGloc-CAV8IO-25" value="EspecieID" style="ellipse;whiteSpace=wrap;html=1;align=center;fontStyle=4;fontSize=15;" parent="1" vertex="1">
          <mxGeometry x="630" y="220" width="100" height="40" as="geometry" />
        </mxCell>
        <mxCell id="_ER3O8_ixGloc-CAV8IO-26" value="nombre" style="ellipse;whiteSpace=wrap;html=1;align=center;fontSize=15;" parent="1" vertex="1">
          <mxGeometry x="780" y="273" width="100" height="40" as="geometry" />
        </mxCell>
        <mxCell id="_ER3O8_ixGloc-CAV8IO-33" value="1:N" style="edgeLabel;html=1;align=center;verticalAlign=middle;resizable=0;points=[];fontSize=15;" parent="1" vertex="1" connectable="0">
          <mxGeometry x="403.9971428571429" y="333" as="geometry">
            <mxPoint x="75" y="-50" as="offset" />
          </mxGeometry>
        </mxCell>
        <mxCell id="_ER3O8_ixGloc-CAV8IO-36" style="edgeStyle=orthogonalEdgeStyle;rounded=0;orthogonalLoop=1;jettySize=auto;html=1;endArrow=none;endFill=0;fontSize=15;" parent="1" source="_ER3O8_ixGloc-CAV8IO-34" target="_ER3O8_ixGloc-CAV8IO-35" edge="1">
          <mxGeometry relative="1" as="geometry" />
        </mxCell>
        <mxCell id="_ER3O8_ixGloc-CAV8IO-34" value="Commerce" style="whiteSpace=wrap;html=1;align=center;fontSize=20;fontStyle=1" parent="1" vertex="1">
          <mxGeometry x="220" y="940" width="120" height="40" as="geometry" />
        </mxCell>
        <mxCell id="_ER3O8_ixGloc-CAV8IO-35" value="VisitanteID" style="ellipse;whiteSpace=wrap;html=1;align=center;fontStyle=4;fontSize=15;" parent="1" vertex="1">
          <mxGeometry x="408" y="940" width="100" height="40" as="geometry" />
        </mxCell>
        <mxCell id="_ER3O8_ixGloc-CAV8IO-37" value="Name" style="ellipse;whiteSpace=wrap;html=1;align=center;fontSize=15;" parent="1" vertex="1">
          <mxGeometry x="447" y="1050" width="100" height="40" as="geometry" />
        </mxCell>
        <mxCell id="_ER3O8_ixGloc-CAV8IO-39" value="&amp;nbsp;name" style="ellipse;whiteSpace=wrap;html=1;align=center;fontSize=15;" parent="1" vertex="1">
          <mxGeometry x="650" y="763" width="136" height="40" as="geometry" />
        </mxCell>
        <mxCell id="_ER3O8_ixGloc-CAV8IO-45" style="edgeStyle=orthogonalEdgeStyle;rounded=0;orthogonalLoop=1;jettySize=auto;html=1;entryX=0.5;entryY=0;entryDx=0;entryDy=0;endArrow=none;endFill=0;fontSize=15;exitX=0.5;exitY=1;exitDx=0;exitDy=0;" parent="1" source="EtExfo8M0nFtXEk3636u-35" target="_ER3O8_ixGloc-CAV8IO-34" edge="1">
          <mxGeometry relative="1" as="geometry" />
        </mxCell>
        <mxCell id="_ER3O8_ixGloc-CAV8IO-46" value="(1,1)" style="edgeLabel;html=1;align=center;verticalAlign=middle;resizable=0;points=[];fontSize=15;" parent="_ER3O8_ixGloc-CAV8IO-45" vertex="1" connectable="0">
          <mxGeometry x="0.3016" y="-2" relative="1" as="geometry">
            <mxPoint as="offset" />
          </mxGeometry>
        </mxCell>
        <mxCell id="_ER3O8_ixGloc-CAV8IO-55" style="edgeStyle=orthogonalEdgeStyle;rounded=0;orthogonalLoop=1;jettySize=auto;html=1;entryX=0.5;entryY=1;entryDx=0;entryDy=0;endArrow=none;endFill=0;fontSize=15;exitX=0.5;exitY=0;exitDx=0;exitDy=0;" parent="1" source="EtExfo8M0nFtXEk3636u-35" target="_ER3O8_ixGloc-CAV8IO-48" edge="1">
          <mxGeometry relative="1" as="geometry" />
        </mxCell>
        <mxCell id="_ER3O8_ixGloc-CAV8IO-56" value="(1,1)" style="edgeLabel;html=1;align=center;verticalAlign=middle;resizable=0;points=[];fontSize=15;" parent="_ER3O8_ixGloc-CAV8IO-55" vertex="1" connectable="0">
          <mxGeometry x="0.3878" relative="1" as="geometry">
            <mxPoint as="offset" />
          </mxGeometry>
        </mxCell>
        <mxCell id="_ER3O8_ixGloc-CAV8IO-43" value="used" style="shape=rhombus;perimeter=rhombusPerimeter;whiteSpace=wrap;html=1;align=center;fontSize=20;fontStyle=2" parent="1" vertex="1">
          <mxGeometry x="500" y="545.5" width="120" height="60" as="geometry" />
        </mxCell>
        <mxCell id="_ER3O8_ixGloc-CAV8IO-52" style="edgeStyle=orthogonalEdgeStyle;rounded=0;orthogonalLoop=1;jettySize=auto;html=1;entryX=1;entryY=0.5;entryDx=0;entryDy=0;endArrow=none;endFill=0;fontSize=15;" parent="1" source="_ER3O8_ixGloc-CAV8IO-48" target="_ER3O8_ixGloc-CAV8IO-50" edge="1">
          <mxGeometry relative="1" as="geometry" />
        </mxCell>
        <mxCell id="_ER3O8_ixGloc-CAV8IO-54" style="edgeStyle=orthogonalEdgeStyle;rounded=0;orthogonalLoop=1;jettySize=auto;html=1;entryX=0.5;entryY=0;entryDx=0;entryDy=0;endArrow=none;endFill=0;fontSize=15;exitX=0.801;exitY=1.003;exitDx=0;exitDy=0;exitPerimeter=0;" parent="1" source="_ER3O8_ixGloc-CAV8IO-48" target="_ER3O8_ixGloc-CAV8IO-49" edge="1">
          <mxGeometry relative="1" as="geometry" />
        </mxCell>
        <mxCell id="_ER3O8_ixGloc-CAV8IO-48" value="Transactions" style="whiteSpace=wrap;html=1;align=center;fontSize=20;fontStyle=1" parent="1" vertex="1">
          <mxGeometry x="218" y="554.5" width="124" height="42" as="geometry" />
        </mxCell>
        <mxCell id="_ER3O8_ixGloc-CAV8IO-49" value="TransactionID" style="ellipse;whiteSpace=wrap;html=1;align=center;fontStyle=4;fontSize=15;" parent="1" vertex="1">
          <mxGeometry x="363" y="650" width="100" height="40" as="geometry" />
        </mxCell>
        <mxCell id="_ER3O8_ixGloc-CAV8IO-50" value="Amount" style="ellipse;whiteSpace=wrap;html=1;align=center;fontSize=15;" parent="1" vertex="1">
          <mxGeometry x="-20" y="555.5" width="136" height="40" as="geometry" />
        </mxCell>
        <mxCell id="_ER3O8_ixGloc-CAV8IO-57" value="&lt;span style=&quot;color: rgb(0, 0, 0); font-family: helvetica; font-size: 15px; font-style: normal; font-weight: 400; letter-spacing: normal; text-align: center; text-indent: 0px; text-transform: none; word-spacing: 0px; background-color: rgb(255, 255, 255); display: inline; float: none;&quot;&gt;1:1&lt;/span&gt;" style="text;whiteSpace=wrap;html=1;fontSize=15;" parent="1" vertex="1">
          <mxGeometry x="540" y="513" width="50" height="30" as="geometry" />
        </mxCell>
        <mxCell id="_ER3O8_ixGloc-CAV8IO-59" style="edgeStyle=orthogonalEdgeStyle;rounded=0;orthogonalLoop=1;jettySize=auto;html=1;entryX=0.5;entryY=1;entryDx=0;entryDy=0;endArrow=none;endFill=0;fontSize=15;" parent="1" source="_ER3O8_ixGloc-CAV8IO-58" target="_ER3O8_ixGloc-CAV8IO-7" edge="1">
          <mxGeometry relative="1" as="geometry" />
        </mxCell>
        <mxCell id="_ER3O8_ixGloc-CAV8IO-63" value="(1,N)" style="edgeLabel;html=1;align=center;verticalAlign=middle;resizable=0;points=[];fontSize=15;" parent="_ER3O8_ixGloc-CAV8IO-59" vertex="1" connectable="0">
          <mxGeometry x="0.3148" y="1" relative="1" as="geometry">
            <mxPoint as="offset" />
          </mxGeometry>
        </mxCell>
        <mxCell id="_ER3O8_ixGloc-CAV8IO-60" style="edgeStyle=orthogonalEdgeStyle;rounded=0;orthogonalLoop=1;jettySize=auto;html=1;endArrow=none;endFill=0;fontSize=15;" parent="1" source="_ER3O8_ixGloc-CAV8IO-58" target="_ER3O8_ixGloc-CAV8IO-48" edge="1">
          <mxGeometry relative="1" as="geometry" />
        </mxCell>
        <mxCell id="_ER3O8_ixGloc-CAV8IO-61" value="(1,1)" style="edgeLabel;html=1;align=center;verticalAlign=middle;resizable=0;points=[];fontSize=15;" parent="_ER3O8_ixGloc-CAV8IO-60" vertex="1" connectable="0">
          <mxGeometry x="0.1821" y="1" relative="1" as="geometry">
            <mxPoint as="offset" />
          </mxGeometry>
        </mxCell>
        <mxCell id="_ER3O8_ixGloc-CAV8IO-58" value="register" style="shape=rhombus;perimeter=rhombusPerimeter;whiteSpace=wrap;html=1;align=center;fontSize=20;fontStyle=2" parent="1" vertex="1">
          <mxGeometry x="220" y="413" width="120" height="60" as="geometry" />
        </mxCell>
        <mxCell id="_ER3O8_ixGloc-CAV8IO-64" value="&lt;span style=&quot;color: rgb(0 , 0 , 0) ; font-family: &amp;#34;helvetica&amp;#34; ; font-size: 15px ; font-style: normal ; font-weight: 400 ; letter-spacing: normal ; text-align: center ; text-indent: 0px ; text-transform: none ; word-spacing: 0px ; background-color: rgb(255 , 255 , 255) ; display: inline ; float: none&quot;&gt;1:N&lt;/span&gt;" style="text;whiteSpace=wrap;html=1;fontSize=15;" parent="1" vertex="1">
          <mxGeometry x="354" y="423" width="50" height="30" as="geometry" />
        </mxCell>
        <mxCell id="jgJUUqroV2WTiFEcboyq-2" value="" style="endArrow=none;html=1;" parent="1" edge="1">
          <mxGeometry width="50" height="50" relative="1" as="geometry">
            <mxPoint x="760" y="440" as="sourcePoint" />
            <mxPoint x="760" y="360" as="targetPoint" />
          </mxGeometry>
        </mxCell>
        <mxCell id="jgJUUqroV2WTiFEcboyq-3" value="" style="endArrow=none;html=1;entryX=0;entryY=0.5;entryDx=0;entryDy=0;" parent="1" target="jgJUUqroV2WTiFEcboyq-5" edge="1">
          <mxGeometry width="50" height="50" relative="1" as="geometry">
            <mxPoint x="760" y="440" as="sourcePoint" />
            <mxPoint x="779.9999999999975" y="441.25" as="targetPoint" />
          </mxGeometry>
        </mxCell>
        <mxCell id="jgJUUqroV2WTiFEcboyq-4" value="Familia" style="ellipse;shape=doubleEllipse;margin=3;whiteSpace=wrap;html=1;align=center;fontSize=15;" parent="1" vertex="1">
          <mxGeometry x="790" y="343" width="100" height="40" as="geometry" />
        </mxCell>
        <mxCell id="jgJUUqroV2WTiFEcboyq-5" value="estado&lt;br&gt;ConservaciÃ³n" style="ellipse;shape=doubleEllipse;margin=3;whiteSpace=wrap;html=1;align=center;fontSize=15;" parent="1" vertex="1">
          <mxGeometry x="786" y="405" width="120" height="70" as="geometry" />
        </mxCell>
        <mxCell id="jgJUUqroV2WTiFEcboyq-9" value="Clients" style="whiteSpace=wrap;html=1;align=center;fontSize=20;fontStyle=1" parent="1" vertex="1">
          <mxGeometry x="437" y="60" width="120" height="40" as="geometry" />
        </mxCell>
        <mxCell id="jgJUUqroV2WTiFEcboyq-12" style="edgeStyle=orthogonalEdgeStyle;rounded=0;orthogonalLoop=1;jettySize=auto;html=1;fontSize=15;endArrow=none;endFill=0;" parent="1" source="jgJUUqroV2WTiFEcboyq-10" target="jgJUUqroV2WTiFEcboyq-9" edge="1">
          <mxGeometry relative="1" as="geometry" />
        </mxCell>
        <mxCell id="jgJUUqroV2WTiFEcboyq-10" value="has" style="shape=rhombus;perimeter=rhombusPerimeter;whiteSpace=wrap;html=1;align=center;fontSize=20;fontStyle=2" parent="1" vertex="1">
          <mxGeometry x="427" y="150" width="140" height="60" as="geometry" />
        </mxCell>
        <mxCell id="jgJUUqroV2WTiFEcboyq-11" value="" style="endArrow=none;html=1;rounded=0;fontSize=15;exitX=0.5;exitY=0;exitDx=0;exitDy=0;entryX=0.5;entryY=1;entryDx=0;entryDy=0;" parent="1" source="_ER3O8_ixGloc-CAV8IO-7" target="jgJUUqroV2WTiFEcboyq-10" edge="1">
          <mxGeometry relative="1" as="geometry">
            <mxPoint x="410" y="230" as="sourcePoint" />
            <mxPoint x="570" y="230" as="targetPoint" />
            <Array as="points">
              <mxPoint x="360" y="240" />
              <mxPoint x="497" y="240" />
            </Array>
          </mxGeometry>
        </mxCell>
        <mxCell id="jgJUUqroV2WTiFEcboyq-13" value="(1,n)" style="edgeLabel;html=1;align=center;verticalAlign=middle;resizable=0;points=[];fontSize=15;" parent="1" vertex="1" connectable="0">
          <mxGeometry x="497.00142857142845" y="120" as="geometry">
            <mxPoint x="-2" y="-2" as="offset" />
          </mxGeometry>
        </mxCell>
        <mxCell id="jgJUUqroV2WTiFEcboyq-14" value="(1,1)" style="edgeLabel;html=1;align=center;verticalAlign=middle;resizable=0;points=[];fontSize=15;" parent="1" vertex="1" connectable="0">
          <mxGeometry x="383.00142857142845" y="210" as="geometry">
            <mxPoint x="-71" y="72" as="offset" />
          </mxGeometry>
        </mxCell>
        <mxCell id="jgJUUqroV2WTiFEcboyq-15" value="1:N" style="edgeLabel;html=1;align=center;verticalAlign=middle;resizable=0;points=[];fontSize=15;" parent="1" vertex="1" connectable="0">
          <mxGeometry x="513.9971428571429" y="230" as="geometry">
            <mxPoint x="75" y="-50" as="offset" />
          </mxGeometry>
        </mxCell>
        <mxCell id="EtExfo8M0nFtXEk3636u-1" value="ClientID" style="ellipse;whiteSpace=wrap;html=1;align=center;fontStyle=4;fontSize=15;" vertex="1" parent="1">
          <mxGeometry x="440" y="-100" width="100" height="40" as="geometry" />
        </mxCell>
        <mxCell id="EtExfo8M0nFtXEk3636u-2" value="FullName" style="ellipse;whiteSpace=wrap;html=1;align=center;dashed=1;fontSize=15;" vertex="1" parent="1">
          <mxGeometry x="610" y="-80" width="100" height="40" as="geometry" />
        </mxCell>
        <mxCell id="EtExfo8M0nFtXEk3636u-4" value="BirthDate" style="ellipse;whiteSpace=wrap;html=1;align=center;fontSize=15;" vertex="1" parent="1">
          <mxGeometry x="333" y="-60" width="100" height="40" as="geometry" />
        </mxCell>
        <mxCell id="EtExfo8M0nFtXEk3636u-5" value="Email" style="ellipse;whiteSpace=wrap;html=1;align=center;fontSize=15;" vertex="1" parent="1">
          <mxGeometry x="225" y="-30" width="100" height="40" as="geometry" />
        </mxCell>
        <mxCell id="EtExfo8M0nFtXEk3636u-6" value="PhoneNumber" style="ellipse;whiteSpace=wrap;html=1;align=center;fontSize=15;" vertex="1" parent="1">
          <mxGeometry x="658" y="60" width="120" height="40" as="geometry" />
        </mxCell>
        <mxCell id="EtExfo8M0nFtXEk3636u-7" value="Address" style="ellipse;whiteSpace=wrap;html=1;align=center;fontSize=15;" vertex="1" parent="1">
          <mxGeometry x="240" y="60" width="100" height="40" as="geometry" />
        </mxCell>
        <mxCell id="EtExfo8M0nFtXEk3636u-8" value="" style="endArrow=none;html=1;rounded=0;exitX=1;exitY=0;exitDx=0;exitDy=0;entryX=0.356;entryY=1.016;entryDx=0;entryDy=0;entryPerimeter=0;" edge="1" parent="1" source="jgJUUqroV2WTiFEcboyq-9" target="EtExfo8M0nFtXEk3636u-2">
          <mxGeometry relative="1" as="geometry">
            <mxPoint x="650" y="-60" as="sourcePoint" />
            <mxPoint x="810" y="-60" as="targetPoint" />
          </mxGeometry>
        </mxCell>
        <mxCell id="EtExfo8M0nFtXEk3636u-9" value="" style="endArrow=none;html=1;rounded=0;entryX=0.5;entryY=0;entryDx=0;entryDy=0;exitX=0.5;exitY=1;exitDx=0;exitDy=0;" edge="1" parent="1" source="EtExfo8M0nFtXEk3636u-1" target="jgJUUqroV2WTiFEcboyq-9">
          <mxGeometry relative="1" as="geometry">
            <mxPoint x="500" y="-59" as="sourcePoint" />
            <mxPoint x="590" y="-20" as="targetPoint" />
          </mxGeometry>
        </mxCell>
        <mxCell id="EtExfo8M0nFtXEk3636u-10" value="" style="endArrow=none;html=1;rounded=0;exitX=1;exitY=0.5;exitDx=0;exitDy=0;entryX=0.358;entryY=-0.007;entryDx=0;entryDy=0;entryPerimeter=0;" edge="1" parent="1" source="EtExfo8M0nFtXEk3636u-4" target="jgJUUqroV2WTiFEcboyq-9">
          <mxGeometry relative="1" as="geometry">
            <mxPoint x="330" y="20" as="sourcePoint" />
            <mxPoint x="490" y="20" as="targetPoint" />
          </mxGeometry>
        </mxCell>
        <mxCell id="EtExfo8M0nFtXEk3636u-11" value="" style="endArrow=none;html=1;rounded=0;exitX=1;exitY=0;exitDx=0;exitDy=0;entryX=0;entryY=0;entryDx=0;entryDy=0;" edge="1" parent="1" source="EtExfo8M0nFtXEk3636u-5" target="jgJUUqroV2WTiFEcboyq-9">
          <mxGeometry relative="1" as="geometry">
            <mxPoint x="370" y="30" as="sourcePoint" />
            <mxPoint x="530" y="30" as="targetPoint" />
          </mxGeometry>
        </mxCell>
        <mxCell id="EtExfo8M0nFtXEk3636u-12" value="" style="endArrow=none;html=1;rounded=0;exitX=1;exitY=0.5;exitDx=0;exitDy=0;entryX=0;entryY=0.5;entryDx=0;entryDy=0;" edge="1" parent="1" source="EtExfo8M0nFtXEk3636u-7" target="jgJUUqroV2WTiFEcboyq-9">
          <mxGeometry relative="1" as="geometry">
            <mxPoint x="360" y="90" as="sourcePoint" />
            <mxPoint x="520" y="90" as="targetPoint" />
          </mxGeometry>
        </mxCell>
        <mxCell id="EtExfo8M0nFtXEk3636u-13" value="" style="endArrow=none;html=1;rounded=0;exitX=1;exitY=0.5;exitDx=0;exitDy=0;" edge="1" parent="1" source="jgJUUqroV2WTiFEcboyq-9" target="EtExfo8M0nFtXEk3636u-6">
          <mxGeometry relative="1" as="geometry">
            <mxPoint x="590" y="120" as="sourcePoint" />
            <mxPoint x="750" y="120" as="targetPoint" />
          </mxGeometry>
        </mxCell>
        <mxCell id="EtExfo8M0nFtXEk3636u-14" value="Status" style="ellipse;whiteSpace=wrap;html=1;align=center;fontSize=15;" vertex="1" parent="1">
          <mxGeometry x="32" y="313" width="100" height="40" as="geometry" />
        </mxCell>
        <mxCell id="EtExfo8M0nFtXEk3636u-15" value="Franquise" style="ellipse;whiteSpace=wrap;html=1;align=center;dashed=1;fontSize=15;" vertex="1" parent="1">
          <mxGeometry x="36" y="383" width="100" height="40" as="geometry" />
        </mxCell>
        <mxCell id="EtExfo8M0nFtXEk3636u-17" value="" style="endArrow=none;html=1;rounded=0;exitX=1;exitY=0.5;exitDx=0;exitDy=0;" edge="1" parent="1" source="EtExfo8M0nFtXEk3636u-14">
          <mxGeometry relative="1" as="geometry">
            <mxPoint x="150" y="380" as="sourcePoint" />
            <mxPoint x="180" y="333" as="targetPoint" />
          </mxGeometry>
        </mxCell>
        <mxCell id="EtExfo8M0nFtXEk3636u-18" value="" style="endArrow=none;html=1;rounded=0;exitX=1;exitY=0.426;exitDx=0;exitDy=0;exitPerimeter=0;" edge="1" parent="1" source="EtExfo8M0nFtXEk3636u-15">
          <mxGeometry relative="1" as="geometry">
            <mxPoint x="133.5" y="399.79999999999995" as="sourcePoint" />
            <mxPoint x="178" y="400" as="targetPoint" />
          </mxGeometry>
        </mxCell>
        <mxCell id="EtExfo8M0nFtXEk3636u-20" value="IssueBanker" style="ellipse;whiteSpace=wrap;html=1;align=center;fontSize=15;" vertex="1" parent="1">
          <mxGeometry x="-110" y="383" width="100" height="40" as="geometry" />
        </mxCell>
        <mxCell id="EtExfo8M0nFtXEk3636u-21" value="Country" style="ellipse;whiteSpace=wrap;html=1;align=center;fontSize=15;" vertex="1" parent="1">
          <mxGeometry x="-110" y="470" width="100" height="40" as="geometry" />
        </mxCell>
        <mxCell id="EtExfo8M0nFtXEk3636u-22" value="" style="endArrow=none;html=1;rounded=0;exitX=1;exitY=0.5;exitDx=0;exitDy=0;entryX=0;entryY=0.5;entryDx=0;entryDy=0;" edge="1" parent="1" source="EtExfo8M0nFtXEk3636u-20" target="EtExfo8M0nFtXEk3636u-15">
          <mxGeometry relative="1" as="geometry">
            <mxPoint x="-20" y="360" as="sourcePoint" />
            <mxPoint x="140" y="360" as="targetPoint" />
          </mxGeometry>
        </mxCell>
        <mxCell id="EtExfo8M0nFtXEk3636u-23" value="" style="endArrow=none;html=1;rounded=0;entryX=0.5;entryY=0;entryDx=0;entryDy=0;exitX=0.5;exitY=1;exitDx=0;exitDy=0;" edge="1" parent="1" source="EtExfo8M0nFtXEk3636u-20" target="EtExfo8M0nFtXEk3636u-21">
          <mxGeometry relative="1" as="geometry">
            <mxPoint x="-60" y="390" as="sourcePoint" />
            <mxPoint x="-20" y="390" as="targetPoint" />
          </mxGeometry>
        </mxCell>
        <mxCell id="EtExfo8M0nFtXEk3636u-25" value="currency" style="ellipse;whiteSpace=wrap;html=1;align=center;fontSize=15;" vertex="1" parent="1">
          <mxGeometry x="-20" y="603" width="136" height="40" as="geometry" />
        </mxCell>
        <mxCell id="EtExfo8M0nFtXEk3636u-27" value="Channel" style="ellipse;whiteSpace=wrap;html=1;align=center;fontSize=15;" vertex="1" parent="1">
          <mxGeometry x="60" y="740" width="136" height="40" as="geometry" />
        </mxCell>
        <mxCell id="EtExfo8M0nFtXEk3636u-28" value="Status" style="ellipse;whiteSpace=wrap;html=1;align=center;fontSize=15;" vertex="1" parent="1">
          <mxGeometry x="297" y="710" width="136" height="40" as="geometry" />
        </mxCell>
        <mxCell id="EtExfo8M0nFtXEk3636u-29" value="DeviceType" style="ellipse;whiteSpace=wrap;html=1;align=center;fontSize=15;" vertex="1" parent="1">
          <mxGeometry x="390" y="470" width="136" height="40" as="geometry" />
        </mxCell>
        <mxCell id="EtExfo8M0nFtXEk3636u-30" value="" style="endArrow=none;html=1;rounded=0;exitX=1;exitY=0.5;exitDx=0;exitDy=0;entryX=0;entryY=1;entryDx=0;entryDy=0;" edge="1" parent="1" source="EtExfo8M0nFtXEk3636u-25" target="_ER3O8_ixGloc-CAV8IO-48">
          <mxGeometry relative="1" as="geometry">
            <mxPoint x="110" y="630" as="sourcePoint" />
            <mxPoint x="270" y="630" as="targetPoint" />
          </mxGeometry>
        </mxCell>
        <mxCell id="EtExfo8M0nFtXEk3636u-31" value="" style="endArrow=none;html=1;rounded=0;exitX=0.5;exitY=0;exitDx=0;exitDy=0;entryX=0.188;entryY=0.989;entryDx=0;entryDy=0;entryPerimeter=0;" edge="1" parent="1" source="EtExfo8M0nFtXEk3636u-26" target="_ER3O8_ixGloc-CAV8IO-48">
          <mxGeometry relative="1" as="geometry">
            <mxPoint x="160" y="670" as="sourcePoint" />
            <mxPoint x="240" y="600" as="targetPoint" />
          </mxGeometry>
        </mxCell>
        <mxCell id="EtExfo8M0nFtXEk3636u-32" value="" style="endArrow=none;html=1;rounded=0;exitX=0.5;exitY=0;exitDx=0;exitDy=0;entryX=0.335;entryY=1.01;entryDx=0;entryDy=0;entryPerimeter=0;" edge="1" parent="1" source="EtExfo8M0nFtXEk3636u-27" target="_ER3O8_ixGloc-CAV8IO-48">
          <mxGeometry relative="1" as="geometry">
            <mxPoint x="200" y="640" as="sourcePoint" />
            <mxPoint x="360" y="640" as="targetPoint" />
          </mxGeometry>
        </mxCell>
        <mxCell id="EtExfo8M0nFtXEk3636u-26" value="TransactionDate" style="ellipse;whiteSpace=wrap;html=1;align=center;fontSize=15;" vertex="1" parent="1">
          <mxGeometry x="36" y="680" width="136" height="40" as="geometry" />
        </mxCell>
        <mxCell id="EtExfo8M0nFtXEk3636u-33" value="" style="endArrow=none;html=1;rounded=0;exitX=1;exitY=0;exitDx=0;exitDy=0;entryX=0.418;entryY=0.995;entryDx=0;entryDy=0;entryPerimeter=0;" edge="1" parent="1" source="_ER3O8_ixGloc-CAV8IO-48" target="EtExfo8M0nFtXEk3636u-29">
          <mxGeometry relative="1" as="geometry">
            <mxPoint x="280" y="660" as="sourcePoint" />
            <mxPoint x="440" y="660" as="targetPoint" />
          </mxGeometry>
        </mxCell>
        <mxCell id="EtExfo8M0nFtXEk3636u-34" value="" style="endArrow=none;html=1;rounded=0;exitX=0.62;exitY=0.989;exitDx=0;exitDy=0;exitPerimeter=0;entryX=0.47;entryY=-0.011;entryDx=0;entryDy=0;entryPerimeter=0;" edge="1" parent="1" source="_ER3O8_ixGloc-CAV8IO-48" target="EtExfo8M0nFtXEk3636u-28">
          <mxGeometry relative="1" as="geometry">
            <mxPoint x="270" y="640" as="sourcePoint" />
            <mxPoint x="430" y="640" as="targetPoint" />
          </mxGeometry>
        </mxCell>
        <mxCell id="EtExfo8M0nFtXEk3636u-35" value="linked" style="shape=rhombus;perimeter=rhombusPerimeter;whiteSpace=wrap;html=1;align=center;fontSize=20;fontStyle=2" vertex="1" parent="1">
          <mxGeometry x="220" y="788" width="120" height="60" as="geometry" />
        </mxCell>
        <mxCell id="EtExfo8M0nFtXEk3636u-36" value="Category" style="ellipse;shape=doubleEllipse;margin=3;whiteSpace=wrap;html=1;align=center;fontSize=15;" vertex="1" parent="1">
          <mxGeometry x="116" y="1030" width="100" height="40" as="geometry" />
        </mxCell>
        <mxCell id="EtExfo8M0nFtXEk3636u-37" value="City" style="ellipse;whiteSpace=wrap;html=1;align=center;fontSize=15;" vertex="1" parent="1">
          <mxGeometry x="-30" y="920" width="136" height="40" as="geometry" />
        </mxCell>
        <mxCell id="EtExfo8M0nFtXEk3636u-38" value="Country" style="ellipse;whiteSpace=wrap;html=1;align=center;fontSize=15;" vertex="1" parent="1">
          <mxGeometry x="-20" y="1000" width="136" height="40" as="geometry" />
        </mxCell>
        <mxCell id="EtExfo8M0nFtXEk3636u-39" value="Geographic&lt;br&gt;Coordinates" style="ellipse;whiteSpace=wrap;html=1;align=center;dashed=1;fontSize=15;" vertex="1" parent="1">
          <mxGeometry x="218" y="1050" width="124" height="60" as="geometry" />
        </mxCell>
        <mxCell id="EtExfo8M0nFtXEk3636u-40" value="" style="endArrow=none;html=1;rounded=0;exitX=0.193;exitY=0.993;exitDx=0;exitDy=0;exitPerimeter=0;entryX=0.5;entryY=0;entryDx=0;entryDy=0;" edge="1" parent="1" source="_ER3O8_ixGloc-CAV8IO-34" target="EtExfo8M0nFtXEk3636u-36">
          <mxGeometry relative="1" as="geometry">
            <mxPoint x="170" y="1000" as="sourcePoint" />
            <mxPoint x="330" y="1000" as="targetPoint" />
          </mxGeometry>
        </mxCell>
        <mxCell id="EtExfo8M0nFtXEk3636u-41" value="" style="endArrow=none;html=1;rounded=0;exitX=1;exitY=0.5;exitDx=0;exitDy=0;entryX=0;entryY=0.5;entryDx=0;entryDy=0;" edge="1" parent="1" source="EtExfo8M0nFtXEk3636u-38" target="_ER3O8_ixGloc-CAV8IO-34">
          <mxGeometry relative="1" as="geometry">
            <mxPoint x="140" y="1000" as="sourcePoint" />
            <mxPoint x="300" y="1000" as="targetPoint" />
          </mxGeometry>
        </mxCell>
        <mxCell id="EtExfo8M0nFtXEk3636u-42" value="" style="endArrow=none;html=1;rounded=0;exitX=1;exitY=0.5;exitDx=0;exitDy=0;entryX=0;entryY=0.25;entryDx=0;entryDy=0;" edge="1" parent="1" source="EtExfo8M0nFtXEk3636u-37" target="_ER3O8_ixGloc-CAV8IO-34">
          <mxGeometry relative="1" as="geometry">
            <mxPoint x="70" y="960" as="sourcePoint" />
            <mxPoint x="230" y="960" as="targetPoint" />
          </mxGeometry>
        </mxCell>
        <mxCell id="EtExfo8M0nFtXEk3636u-43" value="" style="endArrow=none;html=1;rounded=0;exitX=1;exitY=1;exitDx=0;exitDy=0;entryX=0.5;entryY=0;entryDx=0;entryDy=0;" edge="1" parent="1" source="_ER3O8_ixGloc-CAV8IO-34" target="_ER3O8_ixGloc-CAV8IO-37">
          <mxGeometry relative="1" as="geometry">
            <mxPoint x="370" y="1010" as="sourcePoint" />
            <mxPoint x="530" y="1010" as="targetPoint" />
          </mxGeometry>
        </mxCell>
        <mxCell id="EtExfo8M0nFtXEk3636u-44" value="" style="endArrow=none;html=1;rounded=0;exitX=0.5;exitY=1;exitDx=0;exitDy=0;entryX=0.5;entryY=0;entryDx=0;entryDy=0;" edge="1" parent="1" source="_ER3O8_ixGloc-CAV8IO-34" target="EtExfo8M0nFtXEk3636u-39">
          <mxGeometry relative="1" as="geometry">
            <mxPoint x="260" y="1020" as="sourcePoint" />
            <mxPoint x="420" y="1020" as="targetPoint" />
          </mxGeometry>
        </mxCell>
        <mxCell id="EtExfo8M0nFtXEk3636u-45" value="latitude" style="ellipse;whiteSpace=wrap;html=1;align=center;fontSize=15;" vertex="1" parent="1">
          <mxGeometry x="132" y="1180" width="136" height="40" as="geometry" />
        </mxCell>
        <mxCell id="EtExfo8M0nFtXEk3636u-46" value="longitude" style="ellipse;whiteSpace=wrap;html=1;align=center;fontSize=15;" vertex="1" parent="1">
          <mxGeometry x="311" y="1180" width="136" height="40" as="geometry" />
        </mxCell>
        <mxCell id="EtExfo8M0nFtXEk3636u-48" value="" style="endArrow=none;html=1;rounded=0;exitX=0.5;exitY=0;exitDx=0;exitDy=0;entryX=0.5;entryY=1;entryDx=0;entryDy=0;" edge="1" parent="1" source="EtExfo8M0nFtXEk3636u-45" target="EtExfo8M0nFtXEk3636u-39">
          <mxGeometry relative="1" as="geometry">
            <mxPoint x="280" y="1110" as="sourcePoint" />
            <mxPoint x="440" y="1110" as="targetPoint" />
          </mxGeometry>
        </mxCell>
        <mxCell id="EtExfo8M0nFtXEk3636u-49" value="" style="endArrow=none;html=1;rounded=0;exitX=0.5;exitY=1;exitDx=0;exitDy=0;entryX=0.5;entryY=0;entryDx=0;entryDy=0;" edge="1" parent="1" source="EtExfo8M0nFtXEk3636u-39" target="EtExfo8M0nFtXEk3636u-46">
          <mxGeometry relative="1" as="geometry">
            <mxPoint x="280" y="1130" as="sourcePoint" />
            <mxPoint x="440" y="1130" as="targetPoint" />
          </mxGeometry>
        </mxCell>
        <mxCell id="EtExfo8M0nFtXEk3636u-50" value="FirstName" style="ellipse;whiteSpace=wrap;html=1;align=center;fontSize=15;" vertex="1" parent="1">
          <mxGeometry x="806" y="-160" width="100" height="40" as="geometry" />
        </mxCell>
        <mxCell id="EtExfo8M0nFtXEk3636u-51" value="LastName" style="ellipse;whiteSpace=wrap;html=1;align=center;fontSize=15;" vertex="1" parent="1">
          <mxGeometry x="804" y="-30" width="100" height="40" as="geometry" />
        </mxCell>
        <mxCell id="EtExfo8M0nFtXEk3636u-52" value="" style="endArrow=none;html=1;rounded=0;exitX=0.5;exitY=0;exitDx=0;exitDy=0;entryX=0;entryY=0.5;entryDx=0;entryDy=0;" edge="1" parent="1" source="EtExfo8M0nFtXEk3636u-2" target="EtExfo8M0nFtXEk3636u-50">
          <mxGeometry relative="1" as="geometry">
            <mxPoint x="680" y="-120" as="sourcePoint" />
            <mxPoint x="840" y="-120" as="targetPoint" />
          </mxGeometry>
        </mxCell>
        <mxCell id="EtExfo8M0nFtXEk3636u-53" value="" style="endArrow=none;html=1;rounded=0;exitX=0.605;exitY=0.992;exitDx=0;exitDy=0;entryX=0;entryY=0.5;entryDx=0;entryDy=0;exitPerimeter=0;" edge="1" parent="1" source="EtExfo8M0nFtXEk3636u-2" target="EtExfo8M0nFtXEk3636u-51">
          <mxGeometry relative="1" as="geometry">
            <mxPoint x="740" y="-20" as="sourcePoint" />
            <mxPoint x="900" y="-20" as="targetPoint" />
          </mxGeometry>
        </mxCell>
        <mxCell id="EtExfo8M0nFtXEk3636u-54" value="MiddleName" style="ellipse;whiteSpace=wrap;html=1;align=center;fontSize=15;" vertex="1" parent="1">
          <mxGeometry x="804" y="-90" width="100" height="40" as="geometry" />
        </mxCell>
        <mxCell id="EtExfo8M0nFtXEk3636u-55" value="" style="endArrow=none;html=1;rounded=0;exitX=1;exitY=0.5;exitDx=0;exitDy=0;entryX=0;entryY=0.5;entryDx=0;entryDy=0;" edge="1" parent="1" source="EtExfo8M0nFtXEk3636u-2" target="EtExfo8M0nFtXEk3636u-54">
          <mxGeometry relative="1" as="geometry">
            <mxPoint x="710" y="-40" as="sourcePoint" />
            <mxPoint x="870" y="-40" as="targetPoint" />
          </mxGeometry>
        </mxCell>
        <mxCell id="EtExfo8M0nFtXEk3636u-56" value="&lt;span style=&quot;color: rgb(0, 0, 0); font-family: helvetica; font-size: 15px; font-style: normal; font-weight: 400; letter-spacing: normal; text-align: center; text-indent: 0px; text-transform: none; word-spacing: 0px; background-color: rgb(255, 255, 255); display: inline; float: none;&quot;&gt;1:1&lt;/span&gt;" style="text;whiteSpace=wrap;html=1;fontSize=15;" vertex="1" parent="1">
          <mxGeometry x="354" y="803" width="50" height="30" as="geometry" />
        </mxCell>
        <mxCell id="EtExfo8M0nFtXEk3636u-57" value="Payment&lt;br&gt;Method" style="whiteSpace=wrap;html=1;align=center;fontSize=20;fontStyle=1" vertex="1" parent="1">
          <mxGeometry x="730" y="650" width="124" height="50" as="geometry" />
        </mxCell>
        <mxCell id="EtExfo8M0nFtXEk3636u-58" value="" style="endArrow=none;html=1;rounded=0;exitX=1;exitY=0.5;exitDx=0;exitDy=0;entryX=0;entryY=0.5;entryDx=0;entryDy=0;" edge="1" parent="1" source="_ER3O8_ixGloc-CAV8IO-48" target="_ER3O8_ixGloc-CAV8IO-43">
          <mxGeometry relative="1" as="geometry">
            <mxPoint x="400" y="570" as="sourcePoint" />
            <mxPoint x="560" y="570" as="targetPoint" />
          </mxGeometry>
        </mxCell>
        <mxCell id="EtExfo8M0nFtXEk3636u-60" value="(1,1)" style="edgeLabel;html=1;align=center;verticalAlign=middle;resizable=0;points=[];" vertex="1" connectable="0" parent="EtExfo8M0nFtXEk3636u-58">
          <mxGeometry x="-0.5071" relative="1" as="geometry">
            <mxPoint as="offset" />
          </mxGeometry>
        </mxCell>
        <mxCell id="EtExfo8M0nFtXEk3636u-59" value="" style="endArrow=none;html=1;rounded=0;exitX=1;exitY=0.5;exitDx=0;exitDy=0;" edge="1" parent="1" source="_ER3O8_ixGloc-CAV8IO-43">
          <mxGeometry relative="1" as="geometry">
            <mxPoint x="740" y="590" as="sourcePoint" />
            <mxPoint x="800" y="650" as="targetPoint" />
            <Array as="points">
              <mxPoint x="800" y="576" />
            </Array>
          </mxGeometry>
        </mxCell>
        <mxCell id="EtExfo8M0nFtXEk3636u-61" value="(1,1)" style="edgeLabel;html=1;align=center;verticalAlign=middle;resizable=0;points=[];" vertex="1" connectable="0" parent="EtExfo8M0nFtXEk3636u-59">
          <mxGeometry x="0.8006" y="1" relative="1" as="geometry">
            <mxPoint as="offset" />
          </mxGeometry>
        </mxCell>
        <mxCell id="EtExfo8M0nFtXEk3636u-62" value="PaymentID" style="ellipse;whiteSpace=wrap;html=1;align=center;fontStyle=4;fontSize=15;" vertex="1" parent="1">
          <mxGeometry x="880" y="770" width="100" height="40" as="geometry" />
        </mxCell>
        <mxCell id="EtExfo8M0nFtXEk3636u-63" value="" style="endArrow=none;html=1;rounded=0;exitX=0.5;exitY=0;exitDx=0;exitDy=0;entryX=0.5;entryY=1;entryDx=0;entryDy=0;" edge="1" parent="1" source="_ER3O8_ixGloc-CAV8IO-39" target="EtExfo8M0nFtXEk3636u-57">
          <mxGeometry relative="1" as="geometry">
            <mxPoint x="760" y="780" as="sourcePoint" />
            <mxPoint x="920" y="780" as="targetPoint" />
          </mxGeometry>
        </mxCell>
        <mxCell id="EtExfo8M0nFtXEk3636u-64" value="" style="endArrow=none;html=1;rounded=0;exitX=0.5;exitY=1;exitDx=0;exitDy=0;entryX=0.5;entryY=0;entryDx=0;entryDy=0;" edge="1" parent="1" source="EtExfo8M0nFtXEk3636u-57" target="EtExfo8M0nFtXEk3636u-62">
          <mxGeometry relative="1" as="geometry">
            <mxPoint x="870" y="700" as="sourcePoint" />
            <mxPoint x="1030" y="700" as="targetPoint" />
          </mxGeometry>
        </mxCell>
        <mxCell id="EtExfo8M0nFtXEk3636u-65" value="&lt;h1 style=&quot;margin-top: 0px;&quot;&gt;&lt;font style=&quot;font-size: 15px;&quot;&gt;Relaciones y Cardinalidad&lt;/font&gt;&lt;/h1&gt;&lt;font style=&quot;font-size: 15px;&quot;&gt;&lt;br&gt;&lt;/font&gt;&lt;table&gt;&lt;thead&gt;&lt;tr&gt;&lt;th&gt;&lt;font style=&quot;font-size: 15px;&quot;&gt;RelaciÃ³n&lt;/font&gt;&lt;/th&gt;&lt;th&gt;&lt;font style=&quot;font-size: 15px;&quot;&gt;Entidades Involucradas&lt;/font&gt;&lt;/th&gt;&lt;th&gt;&lt;font style=&quot;font-size: 15px;&quot;&gt;Cardinalidad&lt;/font&gt;&lt;/th&gt;&lt;/tr&gt;&lt;/thead&gt;&lt;tbody&gt;&lt;tr&gt;&lt;td&gt;&lt;font style=&quot;font-size: 15px;&quot;&gt;Posee&lt;/font&gt;&lt;/td&gt;&lt;td&gt;&lt;font style=&quot;font-size: 15px;&quot;&gt;Cliente â Tarjeta&lt;/font&gt;&lt;/td&gt;&lt;td&gt;&lt;font style=&quot;font-size: 15px;&quot;&gt;1:N&lt;/font&gt;&lt;/td&gt;&lt;/tr&gt;&lt;tr&gt;&lt;td&gt;&lt;font style=&quot;font-size: 15px;&quot;&gt;Usa&lt;/font&gt;&lt;/td&gt;&lt;td&gt;&lt;font style=&quot;font-size: 15px;&quot;&gt;Tarjeta â TransacciÃ³n&lt;/font&gt;&lt;/td&gt;&lt;td&gt;&lt;font style=&quot;font-size: 15px;&quot;&gt;1:N&lt;/font&gt;&lt;/td&gt;&lt;/tr&gt;&lt;tr&gt;&lt;td&gt;&lt;font style=&quot;font-size: 15px;&quot;&gt;Se Realiza En&lt;/font&gt;&lt;/td&gt;&lt;td&gt;&lt;font style=&quot;font-size: 15px;&quot;&gt;TransacciÃ³n â UbicaciÃ³n Comercial&lt;/font&gt;&lt;/td&gt;&lt;td&gt;&lt;font style=&quot;font-size: 15px;&quot;&gt;1:1&lt;/font&gt;&lt;/td&gt;&lt;/tr&gt;&lt;tr&gt;&lt;td&gt;&lt;font style=&quot;font-size: 15px;&quot;&gt;Se Realiza Con MÃ©todo&lt;/font&gt;&lt;/td&gt;&lt;td&gt;&lt;font style=&quot;font-size: 15px;&quot;&gt;TransacciÃ³n â MÃ©todo de Pago&lt;/font&gt;&lt;/td&gt;&lt;td&gt;&lt;font style=&quot;font-size: 15px;&quot;&gt;1:1&lt;/font&gt;&lt;/td&gt;&lt;/tr&gt;&lt;tr&gt;&lt;td&gt;&lt;font style=&quot;font-size: 15px;&quot;&gt;Pertenece a&lt;/font&gt;&lt;/td&gt;&lt;td&gt;&lt;font style=&quot;font-size: 15px;&quot;&gt;Tarjeta â Franquicia&lt;/font&gt;&lt;/td&gt;&lt;td&gt;&lt;font style=&quot;font-size: 15px;&quot;&gt;N:1&lt;/font&gt;&lt;/td&gt;&lt;/tr&gt;&lt;tr&gt;&lt;td&gt;&lt;font style=&quot;font-size: 15px;&quot;&gt;Emite&lt;/font&gt;&lt;/td&gt;&lt;td&gt;&lt;font style=&quot;font-size: 15px;&quot;&gt;Entidad Emisora â Franquicia&lt;/font&gt;&lt;/td&gt;&lt;td&gt;&lt;font style=&quot;font-size: 15px;&quot;&gt;1:N&lt;/font&gt;&lt;/td&gt;&lt;/tr&gt;&lt;tr&gt;&lt;td&gt;&lt;font style=&quot;font-size: 15px;&quot;&gt;Opera en&lt;/font&gt;&lt;/td&gt;&lt;td&gt;&lt;font style=&quot;font-size: 15px;&quot;&gt;Entidad Emisora â PaÃ­s&lt;/font&gt;&lt;/td&gt;&lt;td&gt;&lt;font style=&quot;font-size: 15px;&quot;&gt;N:1&lt;/font&gt;&lt;/td&gt;&lt;/tr&gt;&lt;tr&gt;&lt;td&gt;&lt;font style=&quot;font-size: 15px;&quot;&gt;Tiene Origen&lt;/font&gt;&lt;/td&gt;&lt;td&gt;&lt;font style=&quot;font-size: 15px;&quot;&gt;Franquicia â PaÃ­s&lt;/font&gt;&lt;/td&gt;&lt;td&gt;&lt;font style=&quot;font-size: 15px;&quot;&gt;N:1&lt;/font&gt;&lt;/td&gt;&lt;/tr&gt;&lt;/tbody&gt;&lt;/table&gt;&lt;p&gt;&lt;font style=&quot;font-size: 15px;&quot;&gt;.&lt;/font&gt;&lt;/p&gt;" style="text;html=1;whiteSpace=wrap;overflow=hidden;rounded=0;" vertex="1" parent="1">
          <mxGeometry x="640" y="880" width="660" height="280" as="geometry" />
        </mxCell>
        <mxCell id="EtExfo8M0nFtXEk3636u-66" value="CountryOrigin" style="ellipse;whiteSpace=wrap;html=1;align=center;fontSize=15;" vertex="1" parent="1">
          <mxGeometry x="-120" y="303" width="100" height="40" as="geometry" />
        </mxCell>
        <mxCell id="EtExfo8M0nFtXEk3636u-67" value="" style="endArrow=none;html=1;rounded=0;exitX=1;exitY=0.5;exitDx=0;exitDy=0;entryX=0;entryY=0;entryDx=0;entryDy=0;" edge="1" parent="1" source="EtExfo8M0nFtXEk3636u-66" target="EtExfo8M0nFtXEk3636u-15">
          <mxGeometry width="50" height="50" relative="1" as="geometry">
            <mxPoint x="-10" y="400" as="sourcePoint" />
            <mxPoint x="40" y="350" as="targetPoint" />
          </mxGeometry>
        </mxCell>
      </root>
    </mxGraphModel>
  </diagram>
</mxfile>
